<svg width="483" height="211" viewBox="0 0 483 211" fill="none" xmlns="http://www.w3.org/2000/svg"  image-rendering="optimizeQuality" shape-rendering="geometricPrecision"  >
<path  image-rendering="optimizeQuality" shape-rendering="geometricPrecision"  d="M356.2 1.25315C355.3 2.45315 345 23.8531 345 24.6531C345 24.8531 349.8 25.0531 355.6 25.0531C364.8 25.0531 366.5 24.7531 368.8 22.9531C374.4 18.6531 390.9 1.75315 390.4 0.953148C389.5 -0.546852 357.4 -0.146852 356.2 1.25315Z" fill="black"/>
<path  image-rendering="optimizeQuality" shape-rendering="geometricPrecision"  d="M0.499976 3.25314C0.199976 3.95314 0.0999756 31.5531 0.199976 64.5531L0.499976 124.553H17H33.5V63.5531V2.55314L17.2 2.25314C4.79998 2.05314 0.799976 2.25314 0.499976 3.25314Z" fill="black"/>
<path  image-rendering="optimizeQuality" shape-rendering="geometricPrecision"  d="M193.7 2.75315C193.3 3.05315 193 8.25315 193 14.2531V25.0531H210H227V13.5531V2.05315H210.7C201.7 2.05315 194 2.35315 193.7 2.75315Z" fill="black"/>
<path  image-rendering="optimizeQuality" shape-rendering="geometricPrecision"  d="M346.5 33.0532C329.5 36.7532 319.1 46.5532 315.6 62.0532C313.7 70.1532 313.5 87.5532 315.1 95.2532C317.8 107.953 326.5 118.753 337.6 123.153C342.1 124.953 346 125.553 354.4 125.853C370.2 126.453 379.7 123.253 387.6 114.853C393.1 109.053 394.5 106.553 397 98.2532C398.9 91.9532 399.1 89.3532 398.8 77.3532C398.5 68.2532 397.7 61.7532 396.6 58.3532C393 47.0532 383.5 37.7532 372.1 34.4532C365.5 32.5532 352.2 31.7532 346.5 33.0532ZM359.3 52.9532C363.7 54.6532 364.5 58.8532 364.5 80.2532C364.5 98.6532 364.4 100.053 362.4 102.753C361 104.653 359.2 105.653 357.1 105.853C349.6 106.653 347.6 99.9532 348.2 76.0532C348.6 56.3532 349.7 53.2532 356.2 52.1532C356.6 52.1532 358 52.4532 359.3 52.9532Z" fill="black"/>
<path  image-rendering="optimizeQuality" shape-rendering="geometricPrecision"  d="M436 32.6531C421.4 35.4531 411.7 42.9531 408.9 53.4531C407.1 60.0531 408.2 71.0531 411.2 76.2531C415.7 83.7531 423.2 88.1531 439.8 93.0531C450.3 96.2531 454 98.2531 454 101.053C454 106.653 442.3 107.853 432.5 103.153C429.2 101.653 425.4 99.1531 424.1 97.6531C422.7 96.2531 421.2 95.0531 420.6 95.0531C420 95.1531 415.9 98.5531 411.5 102.653L403.5 110.253L408 114.253C417.5 122.753 427.6 126.053 443.9 126.053C458.4 126.053 466.8 123.653 473.6 117.753C479.7 112.353 482.2 107.153 482.8 98.4531C483.2 92.2531 482.9 90.5531 480.7 85.9531C476.2 76.0531 471.1 72.6531 453.2 66.8531C439.6 62.5531 437 61.0531 437 57.5531C437 54.1531 439.5 52.6531 445.1 52.8531C450.4 52.9531 456.8 55.9531 460.4 59.9531C461.5 61.1531 462.8 62.0531 463.4 62.0531C464.8 62.0531 479 47.8531 479 46.4531C479 44.9531 472.9 39.5531 468.9 37.4531C463.1 34.4531 456.5 32.9531 447.5 32.5531C442.6 32.3531 437.4 32.4531 436 32.6531Z" fill="black"/>
<path  image-rendering="optimizeQuality" shape-rendering="geometricPrecision"  d="M124.3 35.0532C116.7 37.0532 102.3 42.6532 101.5 44.0532C101 44.7532 108 61.3532 109.3 62.6532C109.6 63.0532 113.2 61.9532 117.2 60.2532C136 52.4532 146.5 54.7532 145.8 66.4532L145.5 70.3532L134.5 72.2532C114.9 75.4532 106.5 79.3532 100.5 87.8532C98 91.5532 97.5 93.3532 97.2 99.6532C96.7 109.053 98.6 114.553 104 119.453C114 128.453 129.3 127.653 141.7 117.453L146.1 113.753L149.3 116.853C155.3 122.453 163 124.853 177 125.253L184.5 125.553L184.8 120.253C185.1 115.153 185 114.953 182 113.953C180.3 113.353 178.5 112.053 178 111.053C177.4 109.953 177 98.0532 177 82.7532C177 51.1532 176.4 48.0532 169.1 40.9532C165.2 37.2532 163.1 36.0532 157.7 34.7532C148.9 32.4532 133.7 32.6532 124.3 35.0532ZM146 93.5532C146 105.553 145.6 106.053 137.5 106.053C131.5 106.053 129.4 104.853 128 100.653C125.1 91.7532 132.4 83.5532 143.8 83.1532C145.9 83.0532 146 83.3532 146 93.5532Z" fill="black"/>
<path  image-rendering="optimizeQuality" shape-rendering="geometricPrecision"  d="M300.5 34.7531C293.8 38.2531 285.8 47.8531 279.5 59.7531C278 62.6531 276.4 65.0531 275.9 65.0531C275.4 65.0531 275 58.0531 275 49.5531V34.0531L258.3 34.2531L241.5 34.5531V79.5531V124.553L258.3 124.853L275 125.053V100.553V76.0531L278.8 74.1531C284 71.5531 295.4 68.2531 302.3 67.4531L308 66.7531V49.9531C308 33.0531 308 33.0531 305.8 33.0531C304.5 33.1531 302.2 33.8531 300.5 34.7531Z" fill="black"/>
<path  image-rendering="optimizeQuality" shape-rendering="geometricPrecision"  d="M57.4 35.2532C56.9 35.9532 51.8 46.1532 46 57.8532L35.5 79.0532L47.2 101.853L58.9 124.553L76.4 124.853C90.5 125.053 94 124.853 94 123.753C94 123.053 88.6 112.753 82 100.853C75.4 89.0532 70 78.8532 70 78.3532C70 77.8532 75.2 67.8532 81.5 56.0532C87.8 44.2532 93 34.5532 93 34.3532C93 34.1532 85.2 34.0532 75.6 34.0532C62.9 34.0532 58 34.3532 57.4 35.2532Z" fill="black"/>
<path  image-rendering="optimizeQuality" shape-rendering="geometricPrecision"  d="M193.2 79.2531L193.5 124.553L210.3 124.853L227 125.053V79.5531V34.0531H210H193L193.2 79.2531Z" fill="black"/>
<path  image-rendering="optimizeQuality" shape-rendering="geometricPrecision"  d="M0.2 154.753L0.5 171.553L170 172.053L339.5 172.553L340 191.553L340.5 210.553L356.4 210.853C368.5 211.053 372.5 210.753 373.2 209.853C373.6 209.153 374 200.353 374 190.253V172.053H424.5H475L475.5 169.753C475.8 168.553 475.9 161.053 475.8 153.053L475.5 138.553L237.7 138.253L0 138.053L0.2 154.753Z" fill="black"/>
</svg>
